<svg id="Layer_1" data-name="Layer 1" xmlns="http://www.w3.org/2000/svg" viewBox="0 0 500 500"><defs><style>.cls-1{fill:#fff;}</style></defs><title>logo-aron</title><path class="cls-1" d="M83.87,369.71a59.87,59.87,0,0,1-14-1.65,40.7,40.7,0,0,1-12.12-4.95,6.63,6.63,0,0,1-2.48-3.88,25.13,25.13,0,0,1-.66-6.19,57.81,57.81,0,0,1,2.48-15.26,172.56,172.56,0,0,1,6.27-18.23q3.8-9.41,7.92-17.82t7.42-13.86a17,17,0,0,1,7.76-6.69,25.4,25.4,0,0,1,9.73-1.89q11.06,0,9.41,2a69.64,69.64,0,0,0-7.26,10.39q-3.81,6.43-7.1,13.12t-5.61,11.63Q80.23,328,76.11,338.93a136.73,136.73,0,0,0-5.61,17.74,9.31,9.31,0,0,0-.33,2.15A4.84,4.84,0,0,0,71.33,362a6.52,6.52,0,0,0,4.12,1.9c.77.11,1.51.19,2.23.25s1.45.08,2.23.08a22.26,22.26,0,0,0,11.55-3.13,13.65,13.65,0,0,0,6.6-9.08,13.92,13.92,0,0,0,.33-4.29A37.52,37.52,0,0,0,97.23,339a37.07,37.07,0,0,0-3.38-8.91A15,15,0,0,0,88.16,324a2.76,2.76,0,0,1-1.65-2.31c0-1,.6-1.59,1.81-1.81a13.79,13.79,0,0,0,8.17-3.14,35,35,0,0,0,7.75-8.25A49.63,49.63,0,0,0,110,297.35a33.55,33.55,0,0,0,2.23-11.63q0-7.92-4.71-11a19.92,19.92,0,0,0-11.13-3.05,43,43,0,0,0-11.22,1.56,64.61,64.61,0,0,0-10.07,3.55,48,48,0,0,0-15.43,11.06q-6.18,6.76-7.17,13.2a23.19,23.19,0,0,0-3.14-.83,13.19,13.19,0,0,1-4.54-2A5.67,5.67,0,0,1,42.29,294a14.62,14.62,0,0,1,2.88-10.31,27.84,27.84,0,0,1,9.41-7.76,70.14,70.14,0,0,1,13.36-5.36,98.9,98.9,0,0,1,14.94-3.13,110,110,0,0,1,14.19-1c1.87,0,3.63.05,5.28.16s3.13.28,4.45.5q13.2,2.15,19,8.49a20.5,20.5,0,0,1,5.77,14.11,25.7,25.7,0,0,1-4.12,13.61,35,35,0,0,1-11.31,11.22,33.44,33.44,0,0,1-16.41,5q9.56,2.15,14.76,9.15a24.85,24.85,0,0,1,5.2,15.1,24.09,24.09,0,0,1-4,13q-4,6.27-12.7,9.57A53.2,53.2,0,0,1,83.87,369.71Z"/><path class="cls-1" d="M152.5,370.53q-12,0-17.4-5.44t-5.37-14.36a45.64,45.64,0,0,1,2.81-14.85,84.81,84.81,0,0,1,5.77-13.45,77.08,77.08,0,0,1,8.42-12.7,42.43,42.43,0,0,1,10.56-9.41,23,23,0,0,1,12.21-3.54q8.25,0,13.45,2.55a8.67,8.67,0,0,1,5.19,8.34q0,4.29-3.46,10.72a38.43,38.43,0,0,1-13.53,14.69,41.83,41.83,0,0,1-20,6.6,50.89,50.89,0,0,0-3,11.05,8,8,0,0,0-.16,1.57v1.57q0,5.44,2.47,7.83a8.44,8.44,0,0,0,6.11,2.4,20.68,20.68,0,0,0,11.88-3.47,36.5,36.5,0,0,0,9-8.74,86.81,86.81,0,0,0,6.68-10.56c1.1-2,2-3.83,2.81-5.53s1.37-2.94,1.81-3.71a2,2,0,0,1,3.63-.25,2.1,2.1,0,0,1,.17,2.39q-2.15,4.29-5.94,11.39a66.18,66.18,0,0,1-8.58,12.54,36.72,36.72,0,0,1-11.3,9.32A31.32,31.32,0,0,1,152.5,370.53Zm.83-35.64a30.33,30.33,0,0,0,13.12-10.06,40.06,40.06,0,0,0,7.67-16c.11-.55.19-1,.25-1.48a11.69,11.69,0,0,0,.08-1.32q0-3.3-2-3.3c-1.1,0-2.26.77-3.47,2.31a54.16,54.16,0,0,0-5.61,8.49q-3,5.37-5.28,10.48t-3.46,7.76Z"/><path class="cls-1" d="M200.35,369.05q-8.08,0-11.3-3.72a13.74,13.74,0,0,1-3.22-9.32,41.67,41.67,0,0,1,2.23-12.79,95.51,95.51,0,0,1,5.12-12.7q2.88-5.85,4.53-9,6.76-12.54,15.6-18.32a34.94,34.94,0,0,1,19.55-5.77q3.79,0,8.91.33t10.39.33c1.76,0,3.47-.06,5.12-.17s3.24-.16,4.78-.16h.66c1.87,0,2.81.33,2.81,1,0,.44-.66.93-2,1.48s-3.14,2.39-5.12,5.53a108.11,108.11,0,0,0-6.1,11.3q-3.14,6.6-5.94,13.37l-4,10.14a68,68,0,0,0-3.63,13c-.11.77-.2,1.46-.25,2.06s-.08,1.18-.08,1.73q0,4.13,2.14,4.13,2.64,0,5.45-2.81a44.16,44.16,0,0,0,5.44-6.76q2.31-3.47,4.62-7.76t4.13-8q1.81-3.72,2.64-5.2a1.49,1.49,0,0,1,1.32-1c.66,0,1.26.47,1.81,1.4a2.72,2.72,0,0,1,.17,2.73q-3.13,6.1-6.77,13a87.19,87.19,0,0,1-7.92,12.54q-7.26,9.41-16.83,9.41-7.26,0-10.64-4.46a17.17,17.17,0,0,1-3.38-10.72,29.54,29.54,0,0,1,.49-5.45q-1.81,3-4.45,7.67a48.19,48.19,0,0,1-6,8.5,12,12,0,0,1-7.51,4.29,11.69,11.69,0,0,0-1.32.08A11.15,11.15,0,0,1,200.35,369.05Zm6.11-8.42q1.65,0,4.37-3a54,54,0,0,0,5.61-7.51,79.37,79.37,0,0,0,5-9.15q.5-1.32,2.4-5.7t4.29-10.23q2.39-5.85,4.86-11.79t4.29-10.4a3.62,3.62,0,0,0,.17-1.15.88.88,0,0,0-1-1,4.81,4.81,0,0,0-2.31.74,26.23,26.23,0,0,0-2.48,1.57q-2.14,1.65-5.52,6.84T219.08,322q-3.71,6.93-7,14.11t-5.36,13q-2.07,5.86-2.07,8.83C204.64,359.75,205.25,360.63,206.46,360.63Z"/><path class="cls-1" d="M304.8,369.05q-7.26,0-10.4-5.12a21.25,21.25,0,0,1-3-11.88Q286.31,361.62,281,365a20,20,0,0,1-10.8,3.39q-6.6,0-9.08-3.47a13.82,13.82,0,0,1-2.47-8.25,33.8,33.8,0,0,1,.9-7.67,71.84,71.84,0,0,1,2.07-7.18q2.15-6.27,4.7-12.79t5-11.79c1.65-3.52,2.91-6.11,3.8-7.76q3.3-5.94,7.42-8.17a17.59,17.59,0,0,1,8.42-2.22,23.3,23.3,0,0,1,2.72.16,16.36,16.36,0,0,1,2.56.5,33,33,0,0,1,3.3.9,1.47,1.47,0,0,1,1.15,1.41,3.75,3.75,0,0,1-.49,1.48c-1.55,2.64-3.44,6-5.7,10.15S290,322.24,287.64,327s-4.38,9.38-6.19,13.94a76.92,76.92,0,0,0-3.88,12.3c-.11.55-.19,1-.25,1.48a11.69,11.69,0,0,0-.08,1.32c0,1.87.72,2.81,2.15,2.81s3-1.1,4.62-3.3a56.19,56.19,0,0,0,4.86-7.92q2.4-4.62,4.13-8.5c1.15-2.59,1.9-4.21,2.23-4.87q2.81-5.78,5-11.14t4.87-10.47q3.62-7.26,7.42-10.73a15.38,15.38,0,0,1,7.92-4.12,10.52,10.52,0,0,1,2.56-.33h2.39c1.87,0,3.55.05,5,.16s2.56.22,3.22.33c1.87.11,2.81.66,2.81,1.65,0,1.21-.83,1.93-2.48,2.15q-1.65.16-4.37,4.2t-5.69,9.49q-4.62,8.58-8.91,18.4a89.41,89.41,0,0,0-6.11,19.72c-.11.77-.19,1.46-.25,2.06s-.08,1.18-.08,1.73q0,4.13,2.15,4.13,2.64,0,5.44-2.81a44.19,44.19,0,0,0,5.45-6.76q2.31-3.47,4.62-7.76t4.12-8q1.81-3.72,2.64-5.2a1.49,1.49,0,0,1,1.32-1c.66,0,1.26.47,1.82,1.4a2.71,2.71,0,0,1,.16,2.73q-3.13,6.1-6.76,13a87.19,87.19,0,0,1-7.92,12.54Q314.37,369,304.8,369.05Z"/><path class="cls-1" d="M346.38,369.38A18.13,18.13,0,0,1,335.65,366q-4.78-3.37-4.78-11a57.1,57.1,0,0,1,2.31-14.52,136.27,136.27,0,0,1,6.1-17.57,120.7,120.7,0,0,1,8.25-16.25h-7.09c-.66,0-1-.28-1-.83a2.56,2.56,0,0,1,.82-1.57,4.21,4.21,0,0,1,2-1.23A42.93,42.93,0,0,0,349.1,300q4.2-2.22,8.83-5.19t8.74-5.94q4.13-3,6.6-5.12a8.18,8.18,0,0,1,3.22-1.81,12.25,12.25,0,0,1,3.38-.5,7.73,7.73,0,0,1,4.29,1q1.48,1,0,2a16.22,16.22,0,0,0-3.63,4.13q-2.31,3.3-4.7,7.26t-4.21,7.09h12.54c.22,0,.33.17.33.5a4.65,4.65,0,0,1-.66,2.06c-.44.82-.88,1.24-1.32,1.24h-13q-3.3,5.77-7.26,13.2T354.71,335q-3.56,7.68-5.86,14.19t-2.31,10.32c0,2.75,1.26,4.12,3.8,4.12s5.61-1.26,8.91-3.79a45.48,45.48,0,0,0,7.75-8.58,85.5,85.5,0,0,0,6.19-9.9q2.71-5.11,4.54-8.75a2,2,0,0,1,1.81-1.15,2.36,2.36,0,0,1,1.9.9,1.93,1.93,0,0,1,.08,2.23q-2.47,4.95-6.27,11.55a99.89,99.89,0,0,1-8.08,12.05,34.26,34.26,0,0,1-6.77,6.6,28.55,28.55,0,0,1-6.68,3.38A22.27,22.27,0,0,1,346.38,369.38Z"/><path class="cls-1" d="M384.82,400.89q-7.92.17-12.54-2.14a7.64,7.64,0,0,1-4.62-7.26,10.27,10.27,0,0,1,3.38-7.68,31.21,31.21,0,0,1,8.67-5.61,81.44,81.44,0,0,1,11-4q5.69-1.65,10.15-2.8,3.12-8.42,5.69-16.17t5.2-15.84l-7.59,13.53a68.72,68.72,0,0,1-9.49,11.38q-5,4.78-10.81,4-5.11-.83-7-4.21a15.34,15.34,0,0,1-1.9-7.67,37.12,37.12,0,0,1,1.65-10.64q1.65-5.54,3-9.49,2.81-8.08,6-15.67t5.2-11.39q3-5.77,7.51-7.75a23.47,23.47,0,0,1,9.49-2,37.92,37.92,0,0,1,5.61.41c1.87.27,3.68.58,5.44.91q-1.15.33-3.88,4.12a95.29,95.29,0,0,0-5.77,9.32q-3.06,5.54-5.69,11.31-3.64,8.08-6.11,15.34t-2.47,10.56c0,1.43.38,2.15,1.15,2.15s2-.77,3.3-2.31a77.82,77.82,0,0,0,6.6-10.4q3.3-6.1,5.78-10.89,1.8-3.79,3.79-8.5t4.13-9.15q3.8-7.26,7.75-10.56a16.81,16.81,0,0,1,8.09-4c.66-.11,1.34-.19,2.06-.25s1.4-.08,2.06-.08a31.25,31.25,0,0,1,5.2.41,25.57,25.57,0,0,1,3.38.74q3,1,3,2.31a1.22,1.22,0,0,1-.74,1.07,3.16,3.16,0,0,1-1.57.42q-1.81,0-4.29,3.21a61.08,61.08,0,0,0-5.11,8.09c-1.77,3.24-3.41,6.63-4.95,10.15a138.19,138.19,0,0,0-7.1,19.63q-2.81,10.06-6.6,20.46a58.69,58.69,0,0,0,15.51-14.19,62.21,62.21,0,0,0,5.61-8.17q2.64-4.53,5.12-9.15a2.1,2.1,0,0,1,2-1.32c1.32,0,2,.71,2,2.14a2.5,2.5,0,0,1-.09.66,3.51,3.51,0,0,1-.24.66,101.48,101.48,0,0,1-6.77,12.13,75.38,75.38,0,0,1-7.59,9.82,65.09,65.09,0,0,1-12.54,10.72,30.06,30.06,0,0,1-5.28,3,84.69,84.69,0,0,1-7.92,15,40.94,40.94,0,0,1-10.89,11.22A26.67,26.67,0,0,1,384.82,400.89Zm-4.95-6.76q4.78,0,10.07-5.28a45.86,45.86,0,0,0,8.74-12.38q-4.79,1.15-10.48,3.14a42.3,42.3,0,0,0-9.65,4.62c-2.64,1.75-4,3.79-4,6.1a3.69,3.69,0,0,0,1.07,2.72C376.38,393.77,377.78,394.13,379.87,394.13Z"/><path class="cls-1" d="M85.84,489.05q-9.9,0-14.43-5.2t-4.54-13.78a48.12,48.12,0,0,1,2.14-14,120.51,120.51,0,0,1,5.28-14.52,172.87,172.87,0,0,1,8.09-16.34,155.56,155.56,0,0,1,9.9-15.51A67.71,67.71,0,0,1,103,397.8a36.09,36.09,0,0,1,10.81-6.52A31.43,31.43,0,0,1,125,389.06q9.57,0,13.61,4.29a14.83,14.83,0,0,1,4,10.56,27.1,27.1,0,0,1-2.14,10.23,43.76,43.76,0,0,1-5.86,10.14,40.44,40.44,0,0,1-8.5,8.34,24.88,24.88,0,0,1-10.23,4.45,6.91,6.91,0,0,1-1.65.17c-.77,0-1.15-.22-1.15-.66a2.09,2.09,0,0,1,.66-1.24c.44-.5.88-1,1.32-1.4.88-.88,2.28-2.51,4.21-4.87s3.93-5.12,6-8.25a62.22,62.22,0,0,0,5.11-9.16q3-6.27,3-10.72,0-4.62-3.13-4.62c-1.54,0-3.61,1-6.19,3.05s-5.64,5.47-9.16,10.31q-4,5.28-7.5,11.14t-6.19,10.89q-2.64,5-4.13,8.17a151.37,151.37,0,0,0-5.61,15.75A52.68,52.68,0,0,0,89,470.4a15.51,15.51,0,0,0,1.81,8q1.81,3.06,6.27,3.06a16.29,16.29,0,0,0,9.41-3.39,49,49,0,0,0,9.16-8.58,110.35,110.35,0,0,0,8.08-10.89,120.21,120.21,0,0,0,6.19-10.47c.77.11,1.9.22,3.38.33s2.23,1.15,2.23,3.13a12.29,12.29,0,0,1-1,4.21,53.68,53.68,0,0,1-3.47,6.85,55.51,55.51,0,0,1-14.19,15.51,50.45,50.45,0,0,1-18,9.07,49.21,49.21,0,0,1-6.93,1.4A48.66,48.66,0,0,1,85.84,489.05Z"/><path class="cls-1" d="M164.22,490.53q-12,0-17.41-5.44t-5.36-14.36a45.61,45.61,0,0,1,2.8-14.85A84.89,84.89,0,0,1,150,442.43a77,77,0,0,1,8.41-12.7A42.43,42.43,0,0,1,169,420.32a23,23,0,0,1,12.21-3.54q8.25,0,13.45,2.55a8.66,8.66,0,0,1,5.2,8.34q0,4.29-3.47,10.72a38.43,38.43,0,0,1-13.53,14.69,41.79,41.79,0,0,1-20,6.6,50.89,50.89,0,0,0-3,11.05,8,8,0,0,0-.17,1.57v1.57q0,5.44,2.48,7.83a8.42,8.42,0,0,0,6.1,2.4,20.68,20.68,0,0,0,11.88-3.47,36.71,36.71,0,0,0,9-8.74,86.81,86.81,0,0,0,6.68-10.56c1.1-2,2-3.83,2.8-5.53s1.38-2.94,1.82-3.71,1.15-1.32,1.81-1.32a2.31,2.31,0,0,1,1.82,1.07,2.1,2.1,0,0,1,.16,2.39q-2.15,4.29-5.94,11.39a66.18,66.18,0,0,1-8.58,12.54,36.72,36.72,0,0,1-11.3,9.32A31.28,31.28,0,0,1,164.22,490.53Zm.82-35.64a30.28,30.28,0,0,0,13.12-10.06,39.93,39.93,0,0,0,7.67-16c.11-.55.19-1,.25-1.48a11.69,11.69,0,0,0,.08-1.32q0-3.3-2-3.3c-1.1,0-2.25.77-3.46,2.31a54.16,54.16,0,0,0-5.61,8.49q-3,5.37-5.28,10.48t-3.47,7.76Z"/><path class="cls-1" d="M242.76,489.38q-8.41,0-11.39-4.62a19.41,19.41,0,0,1-3-10.73,41,41,0,0,1,1-8.91,80.25,80.25,0,0,1,2.15-7.92q1.16-3.46,1.65-4.78,2-5.94,4.21-11.47c1.48-3.69,2.61-6.24,3.38-7.67q-.5.83-3.63,4.78t-7.34,9.82q-4.22,5.85-8.34,12.37a102.64,102.64,0,0,0-6.84,12.54q-2.73,6-2.73,10.32a5.89,5.89,0,0,0,1.32,4.29,1.36,1.36,0,0,1,.5.82c0,.55-.61.71-1.82.5-2.53-.45-5-.91-7.42-1.41a11.54,11.54,0,0,1-6-3.13c-1.6-1.6-2.4-4.26-2.4-8a32.65,32.65,0,0,1,2.31-10.81q2.31-6.36,5.45-13.12t5.44-12.54c.33-.88.88-2.23,1.65-4s1.57-3.74,2.4-5.78a51.31,51.31,0,0,0,1.89-5.44,6.05,6.05,0,0,0,.33-3.22,2.53,2.53,0,0,1-.33-1q0-2,2.64-2a20.61,20.61,0,0,1,5.37.74,14,14,0,0,1,4.86,2.4,12.42,12.42,0,0,1,3.63,4,10.11,10.11,0,0,1,1.32,5.11,13.87,13.87,0,0,1-.82,4.29,14.89,14.89,0,0,1-1.41,3.05q-1.06,1.9-2.22,4.05t-2.39,4.45c-.83,1.54-1.13,2.37-.91,2.48a118.84,118.84,0,0,1,9-13.62q4.86-6.35,8.91-11a60.4,60.4,0,0,0,5.36-6.76,7.25,7.25,0,0,1,4.29-1,13.92,13.92,0,0,1,7.1,2.14q3.63,2.15,3.63,7.76,0,4.62-3.3,11.22a186.57,186.57,0,0,0-10.89,24.33q-3.8,10.82-3.8,15.93,0,3.63,2,3.63,2.31,0,5.28-3a42.05,42.05,0,0,0,5.61-7.1,103.19,103.19,0,0,0,6.69-11.22q3-5.94,4.2-8.25a1.59,1.59,0,0,1,1.49-1,2.56,2.56,0,0,1,1.9,1.07,2,2,0,0,1,.24,2.4c-.77,1.54-1.89,3.68-3.38,6.43s-3.16,5.69-5,8.83a92.81,92.81,0,0,1-6.11,9,40.86,40.86,0,0,1-7.26,7.84A13.15,13.15,0,0,1,242.76,489.38Z"/><path class="cls-1" d="M283.18,489.38A18.1,18.1,0,0,1,272.46,486q-4.79-3.37-4.79-11A57.55,57.55,0,0,1,270,460.5a136.36,136.36,0,0,1,6.11-17.57,120.7,120.7,0,0,1,8.25-16.25h-7.1c-.66,0-1-.28-1-.83a2.59,2.59,0,0,1,.83-1.57,4.21,4.21,0,0,1,2-1.23,42.93,42.93,0,0,0,6.85-3.06q4.2-2.22,8.82-5.19t8.75-5.94q4.13-3,6.6-5.12a8.22,8.22,0,0,1,3.21-1.81,12.37,12.37,0,0,1,3.39-.5,7.73,7.73,0,0,1,4.29,1q1.48,1,0,2a16.22,16.22,0,0,0-3.63,4.13q-2.31,3.3-4.71,7.26t-4.2,7.09H321c.22,0,.33.17.33.5a4.65,4.65,0,0,1-.66,2.06c-.44.82-.88,1.24-1.32,1.24h-13q-3.3,5.77-7.26,13.2T291.51,455q-3.54,7.68-5.85,14.19t-2.31,10.32q0,4.13,3.79,4.12,4,0,8.91-3.79a45.52,45.52,0,0,0,7.76-8.58,85.5,85.5,0,0,0,6.19-9.9q2.72-5.11,4.53-8.75a2,2,0,0,1,1.82-1.15,2.36,2.36,0,0,1,1.9.9,1.93,1.93,0,0,1,.08,2.23q-2.47,4.95-6.27,11.55A99.93,99.93,0,0,1,304,478.16a34.24,34.24,0,0,1-6.76,6.6,28.55,28.55,0,0,1-6.68,3.38A22.33,22.33,0,0,1,283.18,489.38Z"/><path class="cls-1" d="M337.14,490.53q-12,0-17.41-5.44t-5.36-14.36a45.61,45.61,0,0,1,2.8-14.85A84.89,84.89,0,0,1,323,442.43a77,77,0,0,1,8.41-12.7,42.43,42.43,0,0,1,10.56-9.41,23,23,0,0,1,12.21-3.54q8.25,0,13.45,2.55a8.68,8.68,0,0,1,5.2,8.34q0,4.29-3.47,10.72a38.43,38.43,0,0,1-13.53,14.69,41.79,41.79,0,0,1-20,6.6,50.89,50.89,0,0,0-3,11.05,8,8,0,0,0-.17,1.57v1.57q0,5.44,2.48,7.83a8.42,8.42,0,0,0,6.1,2.4,20.68,20.68,0,0,0,11.88-3.47,36.5,36.5,0,0,0,9-8.74,85.71,85.71,0,0,0,6.69-10.56c1.1-2,2-3.83,2.8-5.53s1.38-2.94,1.82-3.71,1.15-1.32,1.81-1.32a2.31,2.31,0,0,1,1.82,1.07,2.1,2.1,0,0,1,.16,2.39q-2.14,4.29-5.94,11.39a66.18,66.18,0,0,1-8.58,12.54,36.72,36.72,0,0,1-11.3,9.32A31.28,31.28,0,0,1,337.14,490.53Zm.82-35.64a30.28,30.28,0,0,0,13.12-10.06,39.93,39.93,0,0,0,7.67-16c.11-.55.19-1,.25-1.48a11.69,11.69,0,0,0,.08-1.32q0-3.3-2-3.3c-1.1,0-2.25.77-3.46,2.31a54.16,54.16,0,0,0-5.61,8.49q-3,5.37-5.28,10.48t-3.47,7.76Z"/><path class="cls-1" d="M401.49,489.38q-8.25,0-11.64-4.71a18,18,0,0,1-3.38-10.8,37.48,37.48,0,0,1,2.31-12.13,116.71,116.71,0,0,1,5.69-13.53q3.39-6.85,7-13.12t6.27-11.22c-1.1.22-2.23.41-3.39.58a24.59,24.59,0,0,1-3.38.25,17.26,17.26,0,0,1-6.6-1.16,6.42,6.42,0,0,1-.49,1.32c-.23.44-.39.77-.5,1q-3.63,9.57-7.75,18.65t-7.43,14.85q-2.14,3.79-3.79,3.79c-.89,0-1.32-.66-1.32-2a4.89,4.89,0,0,1,.66-2.47q3.3-6.27,7.67-15.84t8-19.47a7.56,7.56,0,0,0,.41-1.24c.17-.6.31-1.13.42-1.57a10.65,10.65,0,0,1-2.15-6.93,11.46,11.46,0,0,1,1.49-5.53,4.92,4.92,0,0,1,4.62-2.72,5,5,0,0,1,4.95,5.45,14.65,14.65,0,0,1-2.31,7.26c.22.77.93,1.34,2.14,1.73a13.16,13.16,0,0,0,4,.58,15.93,15.93,0,0,0,4.54-.66,5.14,5.14,0,0,0,3.05-2q1.49-2,4.95-2a16.15,16.15,0,0,1,6.6,1.65,8.76,8.76,0,0,1,3.3,2.88,8.07,8.07,0,0,1,1.32,4.71q0,5-4.29,12.54-4.62,8.58-9.49,18.48a113,113,0,0,0-7.17,17.82,14,14,0,0,0-.66,4.12c0,2.31.71,3.47,2.14,3.47s3.27-1,5.2-3a53,53,0,0,0,5.69-7.1,101.55,101.55,0,0,0,6.68-11.22q3.06-5.94,4.21-8.25a1.59,1.59,0,0,1,1.49-1,2.53,2.53,0,0,1,1.89,1.07,2,2,0,0,1,.25,2.4q-2.15,4.46-5.94,11.46A92.59,92.59,0,0,1,418.15,479a37.2,37.2,0,0,1-7.59,7.43A15.17,15.17,0,0,1,401.49,489.38Z"/><path class="cls-1" d="M241.46,227.15c5.34-.33,11.08,0,16.5-1.15,13.59-2.9,22.4-15.33,21.7-29.56-.69-13.9-11.76-26.22-25.1-27.95-19.31-2.51-34.53,11.3-35.3,30.85-1.06,26.9,17.74,42.19,36.6,45,23.53,3.53,42.74-4.46,57.19-23.42a74.83,74.83,0,0,0,15-40.25c2.5-31.82-4.5-62.19-14.92-92-2.65-7.56-4.68-6.91,3.81-13.89,14.59-12,29.17-24,43.89-35.83a84.18,84.18,0,0,1,11-7.07c2.86-1.66,4.35-1.08,5,2.13,1.76,9,4,18,4.64,27,1.1,15.56,2.15,31.23,1.4,46.77-1.74,35.93-9,70.59-28.82,101.45-13.44,21-30.69,37.74-54.6,46.59A108.7,108.7,0,0,1,259,262.29c-37.79-.83-61.42-26.09-68.63-51.21-4.05-14.1-5.07-28.66-4.12-43.42,2.88-44.45,18.87-84.69,39.26-123.5,5.83-11.1,12.57-21.73,19.13-32.43,3-4.88,4-4.79,7.3,0,16.91,24.07,30.36,50,41.27,77.26,7,17.37,12.52,35.15,15.6,53.64,2.89,17.37,3.58,34.73-1.59,51.84-4.83,16-14.5,28.25-29.18,36.34C266,237.4,250.2,235.6,241.46,227.15Z"/><path class="cls-1" d="M312.91,260.5c4.61-3.25,9.08-6.74,13.87-9.71,29.79-18.53,47.84-46,59.58-78.22,2.28-6.25,4.79-12.45,6.57-18.85,3.89-13.95,11.79-25.43,21.14-36.15,18.71-21.44,41.49-37.29,67.17-49.17,4.72-2.19,6-1.66,5.33,3.49a324.16,324.16,0,0,1-5.18,32.23c-7.23,31.92-20.34,61.25-40.4,87.27-26.06,33.81-60.09,55.38-101.49,65.39-7.72,1.87-15.59,3.1-23.4,4.58a15.82,15.82,0,0,1-2.84,0Z"/><path class="cls-1" d="M180.2,262c-3.37-.47-6.75-.88-10.12-1.42-30.92-4.94-59.43-15.85-84.48-34.9-25.57-19.43-44.38-44.33-58-73.26A247.05,247.05,0,0,1,6.71,82.71a78.58,78.58,0,0,1-.83-11c0-3.58.84-4.1,4.19-2.48C17,72.51,23.86,75.82,30.5,79.59a185.8,185.8,0,0,1,58.07,51.23c5.87,7.88,8.64,17.06,12.16,26,5.48,13.9,10.83,27.9,17.22,41.38,9.72,20.48,24.68,36.68,43.43,49.39,5.51,3.74,11,7.57,16.43,11.38.94.66,1.81,1.41,2.71,2.11Z"/><path class="cls-1" d="M208.53,261c-5.86-2.27-11.86-4.21-17.54-6.84-23.62-11-40.9-28.78-53.71-51.12-11.44-19.94-18.11-41.62-21.56-64.19a329.1,329.1,0,0,1-4-42.6c-.43-20,1.06-39.89,5.58-59.46.15-.63.34-1.26.53-1.89,1-3.49,2.33-4.11,5.47-2.13,5.27,3.31,10.69,6.47,15.53,10.34,14.24,11.4,28.18,23.15,42.32,34.66,3.2,2.6,2.95,5.49,1.68,8.79a242.6,242.6,0,0,0-12.53,46c-5,29.25-4.23,58,7.17,85.87,6.35,15.51,15.73,28.93,29.16,39.26.85.66,1.59,1.44,2.38,2.17Z"/></svg>